<?xml version="1.0" encoding="iso-8859-1"?>
<!-- Generator: Adobe Illustrator 19.0.0, SVG Export Plug-In . SVG Version: 6.00 Build 0)  -->
<svg version="1.1" id="Capa_1" xmlns="http://www.w3.org/2000/svg" xmlns:xlink="http://www.w3.org/1999/xlink" x="0px" y="0px"
	 viewBox="0 0 480 480" style="enable-background:new 0 0 480 480;" xml:space="preserve">
<g>
	<g>
		<path d="M479.864,95.312c-0.001-0.407-0.031-0.813-0.088-1.216c-0.064-0.248-0.216-0.448-0.296-0.68
			c-0.127-0.36-0.28-0.71-0.456-1.048c-0.273-0.524-0.606-1.016-0.992-1.464c-0.223-0.284-0.467-0.551-0.728-0.8
			c-0.489-0.415-1.026-0.769-1.6-1.056c-0.271-0.175-0.555-0.33-0.848-0.464c-0.908-0.37-1.876-0.568-2.856-0.584H104
			c-0.991,0.012-1.97,0.21-2.888,0.584c-0.293,0.134-0.577,0.289-0.848,0.464c-0.574,0.286-1.111,0.641-1.6,1.056
			c-0.263,0.247-0.507,0.515-0.728,0.8c-0.388,0.446-0.721,0.938-0.992,1.464c-0.176,0.338-0.329,0.688-0.456,1.048
			c-0.08,0.232-0.232,0.432-0.296,0.68c-0.057,0.403-0.087,0.809-0.088,1.216c0,0.24-0.136,0.44-0.136,0.688v40H56h-0.136
			c-0.788,0.018-1.57,0.15-2.32,0.392c-0.232,0.072-0.424,0.192-0.64,0.28c-0.362,0.131-0.715,0.286-1.056,0.464
			c-0.168,0.096-0.296,0.248-0.456,0.36c-0.16,0.112-0.416,0.32-0.616,0.496c-0.426,0.373-0.81,0.791-1.144,1.248
			c-0.144,0.192-0.296,0.368-0.424,0.576c-0.424,0.677-0.745,1.413-0.952,2.184v0.072c0,0.12,0,0.24,0,0.36
			C48.12,142.945,48.035,143.47,48,144v40H8H7.888c-0.815,0.013-1.625,0.147-2.4,0.4c-0.216,0.072-0.4,0.184-0.6,0.272
			c-0.373,0.126-0.734,0.284-1.08,0.472c-0.168,0.096-0.296,0.248-0.456,0.36c-0.16,0.112-0.416,0.32-0.616,0.496
			c-0.426,0.373-0.81,0.791-1.144,1.248c-0.144,0.192-0.296,0.368-0.424,0.576c-0.424,0.677-0.745,1.413-0.952,2.184v0.072
			c0,0.12,0,0.24,0,0.36C0.094,190.952,0.022,191.474,0,192v192c0,4.418,3.582,8,8,8h368c4.418,0,8-3.582,8-8v-40h40
			c4.418,0,8-3.582,8-8v-40h40c4.418,0,8-3.582,8-8V96C480,95.752,479.88,95.552,479.864,95.312z M439.376,104l-61.336,32H197.96
			l-61.336-32H439.376z M112,109.2l51.368,26.8H112V109.2z M391.368,152l-61.336,32H149.968l-61.336-32H391.368z M64,157.2
			l51.368,26.8H64V157.2z M343.368,200L192,278.976L40.632,200H343.368z M16,205.2l113.696,59.32L16,366.12V205.2z M28.96,376
			l115.896-103.6l43.44,22.664c2.322,1.205,5.086,1.205,7.408,0l43.44-22.664L355.04,376H28.96z M368,336v30.12l-113.696-101.6
			L368,205.2V336z M416,328h-32V192c-0.018-0.52-0.085-1.037-0.2-1.544c0-0.12,0-0.24,0-0.36v-0.072
			c-0.085-0.272-0.187-0.54-0.304-0.8c-0.08-0.216-0.152-0.424-0.248-0.624c-0.096-0.2-0.248-0.528-0.4-0.8
			c-0.152-0.272-0.28-0.384-0.424-0.576c-0.206-0.306-0.433-0.597-0.68-0.872c-0.064-0.064-0.144-0.112-0.208-0.176
			c-0.064-0.064-0.176-0.128-0.256-0.2c-0.2-0.176-0.4-0.336-0.616-0.496c-0.216-0.16-0.288-0.264-0.456-0.36
			c-0.233-0.121-0.474-0.228-0.72-0.32c-0.184-0.088-0.352-0.184-0.544-0.256c-0.192-0.072-0.272-0.12-0.416-0.168
			c-0.763-0.248-1.558-0.383-2.36-0.4L376,184h-11.368L416,157.2V328z M464,280h-32V144c-0.018-0.52-0.085-1.037-0.2-1.544
			c0-0.12,0-0.24,0-0.36v-0.072c-0.085-0.272-0.187-0.54-0.304-0.8c-0.08-0.216-0.152-0.424-0.248-0.624
			c-0.096-0.2-0.248-0.528-0.4-0.8c-0.152-0.272-0.28-0.384-0.424-0.576c-0.206-0.306-0.433-0.597-0.68-0.872
			c-0.064-0.064-0.144-0.112-0.208-0.176c-0.064-0.064-0.176-0.128-0.256-0.2c-0.2-0.176-0.4-0.336-0.616-0.496
			c-0.216-0.16-0.288-0.264-0.456-0.36c-0.168-0.096-0.48-0.2-0.712-0.312s-0.36-0.192-0.552-0.264
			c-0.192-0.072-0.28-0.12-0.432-0.168c-0.774-0.246-1.58-0.373-2.392-0.376H424h-11.368L464,109.2V280z"/>
	</g>
</g>
<g>
</g>
<g>
</g>
<g>
</g>
<g>
</g>
<g>
</g>
<g>
</g>
<g>
</g>
<g>
</g>
<g>
</g>
<g>
</g>
<g>
</g>
<g>
</g>
<g>
</g>
<g>
</g>
<g>
</g>
</svg>
