<?xml version="1.0" encoding="iso-8859-1"?>
<!-- Generator: Adobe Illustrator 16.0.0, SVG Export Plug-In . SVG Version: 6.00 Build 0)  -->
<!DOCTYPE svg PUBLIC "-//W3C//DTD SVG 1.1//EN" "http://www.w3.org/Graphics/SVG/1.1/DTD/svg11.dtd">
<svg version="1.1" id="Capa_1" xmlns="http://www.w3.org/2000/svg" xmlns:xlink="http://www.w3.org/1999/xlink" x="0px" y="0px"
	 width="304.481px" height="304.481px" viewBox="0 0 304.481 304.481" style="enable-background:new 0 0 304.481 304.481;"
	 xml:space="preserve">
<g>
	<g>
		<g>
			<path d="M288.252,56.851c-17.137-6.12-41.004-2.448-58.752-1.836c-26.928,0.612-53.855,3.06-81.396,3.06
				c-26.316,0-52.632-2.448-78.336-6.732c-20.196-3.06-37.332-6.12-57.528-1.836c-3.06,0.612-4.284,3.06-3.672,5.508
				c-1.224-1.836-4.896-1.224-4.896,1.224C-1.224,108.259,0.612,161.503,0,213.522c0,30.601,6.12,35.496,36.108,37.943
				c52.02,4.284,104.652,6.12,156.671,5.509c23.869,0,48.961,0.611,72.217-2.448c10.404-1.224,19.584-1.836,26.316-11.017
				c7.344-9.18,6.731-23.867,7.954-34.884c2.449-23.868,3.673-47.124,3.673-70.992C302.939,119.276,311.508,65.42,288.252,56.851z
				 M276.012,234.943c-23.256,19.584-76.5,11.017-106.487,11.628c-36.107,0-72.215-0.611-108.323-3.061
				c-21.42-1.225-44.676,2.448-50.796-23.867c-3.06-14.076,0-33.66,0.612-48.349c0.612-38.556,2.448-76.5-0.612-115.056
				c0,0,0,0,0-0.612c1.224,1.836,3.06,3.672,5.508,3.06c36.108-6.12,74.052,7.956,110.16,9.18c33.049,1.224,65.483-1.836,98.53-3.06
				c12.854-0.612,39.781-6.12,52.021-1.836c21.42,7.956,16.523,39.78,16.523,57.528
				C291.924,150.488,298.656,215.972,276.012,234.943z"/>
			<path d="M145.656,95.408c-0.612-3.672-6.12-4.284-6.12,0c-1.836,42.228,0,85.067,3.672,127.295c0.612,4.896,7.956,4.896,7.956,0
				C149.94,180.476,149.328,137.636,145.656,95.408z"/>
			<path d="M261.324,126.62c-26.928-3.06-58.752,2.448-84.455,10.404c-3.062,0.612-2.449,6.12,0.611,5.508
				c28.151-3.672,56.916-5.508,84.454-10.404C265.607,131.516,264.385,126.62,261.324,126.62z"/>
			<path d="M263.771,162.115c-22.644-4.283-51.408,4.284-72.828,10.404c-3.06,0.611-1.836,4.896,1.225,4.284
				c13.465-1.837,26.928-3.673,40.393-4.896c10.404-1.224,21.421-0.611,31.212-3.672
				C266.221,167.011,266.832,162.728,263.771,162.115z"/>
			<path d="M264.385,195.164c-23.256-1.837-48.961,3.672-72.828,4.896c-3.061,0-3.061,4.896,0,4.896
				c23.257,1.226,51.408,3.673,74.052-2.447C269.893,201.283,268.668,195.164,264.385,195.164z"/>
			<path d="M274.176,99.08c-0.61-6.12-1.223-12.24-1.836-18.36c0-1.836-1.836-3.672-3.672-3.672
				c-7.344,1.224-15.299,1.224-22.645,2.448c-1.224,0-2.447,1.224-3.06,1.836c-1.225,0-2.449,0.612-2.449,1.836
				c-0.61,8.568,0.613,17.136,0.613,26.316c0,1.836,1.836,3.672,3.672,3.672c5.508,0.612,11.627,0.612,17.135,0.612
				c3.673,0,8.568,0.612,11.019-2.448C276.012,107.648,274.176,102.752,274.176,99.08z M266.221,105.811
				c-0.612,0.612-7.344-0.612-8.567-0.612c-3.672,0-6.732,0-10.404,0c-1.836-6.12-2.447-12.24-2.447-18.972h0.611
				c6.731-0.612,12.852-1.836,19.584-2.448c0,3.06,0.611,6.12,0.611,8.568C266.221,94.796,267.443,105.2,266.221,105.811z"/>
			<path d="M56.916,84.392c-4.896,1.224-9.18,3.672-12.852,6.732c-3.06-3.06-6.732-4.896-10.404-6.12
				c-4.896-1.224-8.568,3.672-6.12,8.568c2.448,4.896,6.12,8.568,11.016,11.016c0,0,0,0,0,0.612
				c0.612,2.448,1.836,3.672,3.672,4.284c1.224,1.836,3.672,2.448,6.12,1.836c7.956-1.836,13.464-12.24,15.3-20.196
				C64.26,86.84,61.2,83.167,56.916,84.392z"/>
		</g>
	</g>
</g>
<g>
</g>
<g>
</g>
<g>
</g>
<g>
</g>
<g>
</g>
<g>
</g>
<g>
</g>
<g>
</g>
<g>
</g>
<g>
</g>
<g>
</g>
<g>
</g>
<g>
</g>
<g>
</g>
<g>
</g>
</svg>
